<?xml version="1.0" standalone="no"?>
<!DOCTYPE svg PUBLIC "-//W3C//DTD SVG 20010904//EN"
 "http://www.w3.org/TR/2001/REC-SVG-20010904/DTD/svg10.dtd">
<svg version="1.0" xmlns="http://www.w3.org/2000/svg"
 width="1716.000000pt" height="624.000000pt" viewBox="0 0 1716.000000 624.000000"
 preserveAspectRatio="xMidYMid meet">

<g transform="translate(0.000000,624.000000) scale(0.100000,-0.100000)"
fill="#000000" stroke="none">
<path d="M3179 5423 c-73 -79 -1426 -1455 -2071 -2108 -130 -132 -246 -251
-256 -265 l-20 -25 467 -84 c256 -46 584 -106 729 -132 145 -26 265 -49 268
-52 2 -2 -58 -307 -135 -678 -263 -1267 -283 -1369 -269 -1369 2 0 132 132
288 292 328 338 989 1015 1296 1328 482 491 883 904 881 906 -1 2 -70 14 -152
29 -83 14 -258 46 -390 70 -132 24 -370 67 -530 95 -400 70 -395 69 -395 86 0
8 36 209 81 447 44 238 98 529 120 647 55 299 159 841 165 863 10 32 -12 17
-77 -50z"/>
<path d="M5390 3360 l0 -1560 235 0 235 0 0 1560 0 1560 -235 0 -235 0 0
-1560z"/>
<path d="M13683 4874 c-57 -21 -129 -86 -161 -148 -22 -43 -26 -64 -26 -131 0
-95 22 -153 81 -212 64 -64 122 -86 217 -81 94 4 142 24 199 81 61 61 82 117
82 217 -1 69 -5 93 -24 129 -32 61 -99 123 -157 144 -59 21 -153 21 -211 1z"/>
<path d="M7155 4053 c-203 -25 -401 -107 -553 -229 -265 -212 -411 -542 -412
-929 -1 -274 58 -481 196 -691 46 -70 176 -204 254 -261 109 -81 284 -154 440
-184 98 -18 319 -16 420 6 223 46 400 143 555 302 212 217 328 548 312 888
-16 318 -119 573 -311 774 -172 178 -367 281 -603 316 -90 14 -225 17 -298 8z
m240 -448 c176 -37 327 -157 409 -326 66 -138 80 -204 80 -389 0 -182 -18
-264 -87 -394 -99 -185 -270 -297 -477 -312 -297 -21 -546 173 -632 495 -30
110 -29 325 1 435 37 138 94 241 180 327 147 147 332 204 526 164z"/>
<path d="M9518 4045 c-389 -61 -714 -340 -842 -725 -108 -326 -79 -748 70
-1019 132 -238 335 -411 581 -495 238 -81 507 -81 741 -2 332 114 593 404 681
757 75 303 42 647 -87 904 -73 148 -197 294 -332 395 -64 48 -207 120 -300
150 -146 47 -344 61 -512 35z m297 -440 c317 -67 511 -365 492 -760 -11 -219
-68 -357 -201 -490 -151 -149 -328 -203 -531 -160 -106 22 -187 67 -277 153
-66 64 -87 91 -123 167 -103 213 -118 431 -44 661 100 312 386 491 684 429z"/>
<path d="M12095 4050 c-191 -31 -363 -128 -482 -274 -45 -55 -48 -57 -54 -35
-4 13 -7 79 -8 147 l-1 122 -220 0 -220 0 0 -1545 0 -1545 230 0 230 0 0 571
0 572 93 -90 c105 -102 179 -147 317 -194 90 -31 103 -33 235 -33 282 1 491
86 682 280 163 164 258 355 309 619 21 106 23 360 5 470 -59 355 -219 632
-454 788 -81 54 -194 104 -285 128 -90 23 -286 33 -377 19z m249 -460 c123
-42 218 -122 289 -241 79 -135 112 -293 104 -504 -7 -201 -45 -324 -136 -445
-112 -148 -285 -228 -476 -217 -108 6 -166 24 -261 83 -190 117 -294 338 -294
624 0 378 176 650 462 715 85 20 234 13 312 -15z"/>
<path d="M15465 4050 c-204 -32 -362 -120 -486 -270 l-54 -64 -6 104 c-4 58
-7 124 -8 148 l-1 42 -220 0 -220 0 0 -1105 0 -1105 230 0 230 0 0 168 c1
1138 5 1202 88 1372 141 287 540 372 760 162 64 -61 97 -120 122 -218 20 -75
21 -112 23 -781 l2 -703 233 0 233 0 -3 783 -3 782 -27 100 c-15 55 -48 142
-74 194 -38 76 -61 109 -129 177 -72 71 -99 90 -187 133 -57 27 -132 57 -168
66 -79 19 -254 27 -335 15z"/>
<path d="M13550 2905 l0 -1105 235 0 235 0 0 1105 0 1105 -235 0 -235 0 0
-1105z"/>
</g>
</svg>
